<svg width="106" height="37" viewBox="0 0 106 37" fill="none" xmlns="http://www.w3.org/2000/svg">
<path d="M45.267 9C45.2443 8.71591 45.1378 8.49432 44.9474 8.33523C44.7599 8.17614 44.4744 8.09659 44.0909 8.09659C43.8466 8.09659 43.6463 8.12642 43.4901 8.18608C43.3366 8.2429 43.223 8.32102 43.1491 8.42045C43.0753 8.51989 43.0369 8.63352 43.0341 8.76136C43.0284 8.86648 43.0469 8.96165 43.0895 9.04688C43.1349 9.12926 43.206 9.20455 43.3026 9.27273C43.3991 9.33807 43.5227 9.39773 43.6733 9.4517C43.8239 9.50568 44.0028 9.55398 44.2102 9.59659L44.9261 9.75C45.4091 9.85227 45.8224 9.98722 46.1662 10.1548C46.5099 10.3224 46.7912 10.5199 47.0099 10.7472C47.2287 10.9716 47.3892 11.2244 47.4915 11.5057C47.5966 11.7869 47.6506 12.0937 47.6534 12.4261C47.6506 13 47.5071 13.4858 47.223 13.8835C46.9389 14.2812 46.5327 14.5838 46.0043 14.7912C45.4787 14.9986 44.8466 15.1023 44.108 15.1023C43.3494 15.1023 42.6875 14.9901 42.1222 14.7656C41.5597 14.5412 41.1222 14.196 40.8097 13.7301C40.5 13.2614 40.3438 12.6619 40.3409 11.9318H42.5909C42.6051 12.1989 42.6719 12.4233 42.7912 12.6051C42.9105 12.7869 43.0781 12.9247 43.294 13.0185C43.5128 13.1122 43.7727 13.1591 44.0739 13.1591C44.3267 13.1591 44.5384 13.1278 44.7088 13.0653C44.8793 13.0028 45.0085 12.9162 45.0966 12.8054C45.1847 12.6946 45.2301 12.5682 45.233 12.4261C45.2301 12.2926 45.1861 12.1761 45.1009 12.0767C45.0185 11.9744 44.8821 11.8835 44.6918 11.804C44.5014 11.7216 44.2443 11.6449 43.9205 11.5739L43.0511 11.3864C42.2784 11.2187 41.669 10.9389 41.223 10.5469C40.7798 10.152 40.5597 9.61364 40.5625 8.93182C40.5597 8.37784 40.7074 7.89347 41.0057 7.47869C41.3068 7.06108 41.723 6.7358 42.2543 6.50284C42.7884 6.26989 43.4006 6.15341 44.0909 6.15341C44.7955 6.15341 45.4048 6.27131 45.919 6.5071C46.4332 6.7429 46.8295 7.07528 47.108 7.50426C47.3892 7.9304 47.5313 8.42898 47.5341 9H45.267ZM56.1058 6.27273V15H54.1286L50.9751 10.4148H50.924V15H48.5547V6.27273H50.5661L53.6683 10.8409H53.7365V6.27273H56.1058ZM57.2266 15V6.27273H63.5163V8.18182H59.5959V9.68182H63.1925V11.5909H59.5959V13.0909H63.4993V15H57.2266ZM66.9585 15H64.4016L67.2823 6.27273H70.521L73.4016 15H70.8448L68.9357 8.67614H68.8675L66.9585 15ZM66.4812 11.5568H71.288V13.3295H66.4812V11.5568ZM74.2422 15V6.27273H76.6115V9.80114H76.7308L79.3558 6.27273H82.1172L79.1683 10.1591L82.1854 15H79.3558L77.3956 11.7273L76.6115 12.75V15H74.2422ZM82.8203 15V6.27273H89.1101V8.18182H85.1896V9.68182H88.7862V11.5909H85.1896V13.0909H89.093V15H82.8203ZM90.2852 15V6.27273H94.0522C94.6999 6.27273 95.2667 6.39062 95.7525 6.62642C96.2383 6.86222 96.6161 7.2017 96.886 7.64489C97.1559 8.08807 97.2908 8.61932 97.2908 9.23864C97.2908 9.86364 97.1516 10.3906 96.8732 10.8196C96.5977 11.2486 96.2099 11.5724 95.7099 11.7912C95.2127 12.0099 94.6317 12.1193 93.967 12.1193H91.717V10.2784H93.4897C93.7681 10.2784 94.0053 10.2443 94.2013 10.1761C94.4002 10.1051 94.5522 9.9929 94.6573 9.83949C94.7653 9.68608 94.8192 9.4858 94.8192 9.23864C94.8192 8.98864 94.7653 8.78551 94.6573 8.62926C94.5522 8.47017 94.4002 8.35369 94.2013 8.27983C94.0053 8.20312 93.7681 8.16477 93.4897 8.16477H92.6545V15H90.2852ZM95.3988 10.9943L97.5806 15H95.0067L92.8761 10.9943H95.3988ZM103.005 9C102.983 8.71591 102.876 8.49432 102.686 8.33523C102.498 8.17614 102.213 8.09659 101.829 8.09659C101.585 8.09659 101.385 8.12642 101.228 8.18608C101.075 8.2429 100.961 8.32102 100.887 8.42045C100.814 8.51989 100.775 8.63352 100.772 8.76136C100.767 8.86648 100.785 8.96165 100.828 9.04688C100.873 9.12926 100.944 9.20455 101.041 9.27273C101.137 9.33807 101.261 9.39773 101.412 9.4517C101.562 9.50568 101.741 9.55398 101.949 9.59659L102.664 9.75C103.147 9.85227 103.561 9.98722 103.904 10.1548C104.248 10.3224 104.529 10.5199 104.748 10.7472C104.967 10.9716 105.127 11.2244 105.23 11.5057C105.335 11.7869 105.389 12.0937 105.392 12.4261C105.389 13 105.245 13.4858 104.961 13.8835C104.677 14.2812 104.271 14.5838 103.743 14.7912C103.217 14.9986 102.585 15.1023 101.846 15.1023C101.088 15.1023 100.426 14.9901 99.8604 14.7656C99.2979 14.5412 98.8604 14.196 98.5479 13.7301C98.2383 13.2614 98.082 12.6619 98.0792 11.9318H100.329C100.343 12.1989 100.41 12.4233 100.529 12.6051C100.649 12.7869 100.816 12.9247 101.032 13.0185C101.251 13.1122 101.511 13.1591 101.812 13.1591C102.065 13.1591 102.277 13.1278 102.447 13.0653C102.618 13.0028 102.747 12.9162 102.835 12.8054C102.923 12.6946 102.968 12.5682 102.971 12.4261C102.968 12.2926 102.924 12.1761 102.839 12.0767C102.757 11.9744 102.62 11.8835 102.43 11.804C102.24 11.7216 101.983 11.6449 101.659 11.5739L100.789 11.3864C100.017 11.2187 99.4073 10.9389 98.9613 10.5469C98.5181 10.152 98.2979 9.61364 98.3008 8.93182C98.2979 8.37784 98.4457 7.89347 98.744 7.47869C99.0451 7.06108 99.4613 6.7358 99.9925 6.50284C100.527 6.26989 101.139 6.15341 101.829 6.15341C102.534 6.15341 103.143 6.27131 103.657 6.5071C104.172 6.7429 104.568 7.07528 104.846 7.50426C105.127 7.9304 105.27 8.42898 105.272 9H103.005ZM40.3239 23.1818V21.2727H47.9091V23.1818H45.2841V30H42.9489V23.1818H40.3239ZM48.8008 30V21.2727H52.5678C53.2156 21.2727 53.7823 21.3906 54.2681 21.6264C54.7539 21.8622 55.1317 22.2017 55.4016 22.6449C55.6715 23.0881 55.8065 23.6193 55.8065 24.2386C55.8065 24.8636 55.6673 25.3906 55.3888 25.8196C55.1133 26.2486 54.7255 26.5724 54.2255 26.7912C53.7283 27.0099 53.1474 27.1193 52.4826 27.1193H50.2326V25.2784H52.0053C52.2837 25.2784 52.521 25.2443 52.717 25.1761C52.9158 25.1051 53.0678 24.9929 53.1729 24.8395C53.2809 24.6861 53.3349 24.4858 53.3349 24.2386C53.3349 23.9886 53.2809 23.7855 53.1729 23.6293C53.0678 23.4702 52.9158 23.3537 52.717 23.2798C52.521 23.2031 52.2837 23.1648 52.0053 23.1648H51.1701V30H48.8008ZM53.9144 25.9943L56.0962 30H53.5224L51.3917 25.9943H53.9144ZM59.0835 30H56.5266L59.4073 21.2727H62.646L65.5266 30H62.9698L61.0607 23.6761H60.9925L59.0835 30ZM58.6062 26.5568H63.413V28.3295H58.6062V26.5568ZM66.3672 30V21.2727H70.1342C70.782 21.2727 71.3487 21.4006 71.8345 21.6562C72.3203 21.9119 72.6982 22.2713 72.968 22.7344C73.2379 23.1974 73.3729 23.7386 73.3729 24.358C73.3729 24.983 73.2337 25.5241 72.9553 25.9815C72.6797 26.4389 72.2919 26.7912 71.7919 27.0384C71.2947 27.2855 70.7138 27.4091 70.049 27.4091H67.799V25.5682H69.5717C69.8501 25.5682 70.0874 25.5199 70.2834 25.4233C70.4822 25.3239 70.6342 25.1832 70.7393 25.0014C70.8473 24.8196 70.9013 24.6051 70.9013 24.358C70.9013 24.108 70.8473 23.8949 70.7393 23.7188C70.6342 23.5398 70.4822 23.4034 70.2834 23.3097C70.0874 23.2131 69.8501 23.1648 69.5717 23.1648H68.7365V30H66.3672Z" fill="white"/>
<g clip-path="url(#clip0_159_190)">
<path d="M12.7641 26.2802H7.15625C6.84959 26.2802 6.5555 26.1584 6.33866 25.9416C6.12182 25.7247 6 25.4306 6 25.124C6 24.8173 6.12182 24.5232 6.33866 24.3064C6.5555 24.0895 6.84959 23.9677 7.15625 23.9677H12.7641C13.0707 23.9677 13.3648 24.0895 13.5817 24.3064C13.7985 24.5232 13.9203 24.8173 13.9203 25.124C13.9203 25.4306 13.7985 25.7247 13.5817 25.9416C13.3648 26.1584 13.0707 26.2802 12.7641 26.2802ZM17.3891 28.5927H9.46875C9.16209 28.5927 8.868 28.7145 8.65116 28.9314C8.43432 29.1482 8.3125 29.4423 8.3125 29.749C8.3125 30.0556 8.43432 30.3497 8.65116 30.5666C8.868 30.7834 9.16209 30.9052 9.46875 30.9052H17.3891C17.6957 30.9052 17.9898 30.7834 18.2067 30.5666C18.4235 30.3497 18.5453 30.0556 18.5453 29.749C18.5453 29.4423 18.4235 29.1482 18.2067 28.9314C17.9898 28.7145 17.6957 28.5927 17.3891 28.5927ZM35.9411 23.7697L31.8032 21.7015C30.6482 21.1287 29.6768 20.2438 28.9991 19.1472C28.3214 18.0505 27.9644 16.7859 27.9688 15.4967V11.249C27.9688 10.944 27.8483 10.6515 27.6337 10.4349C27.419 10.2184 27.1275 10.0954 26.8226 10.0927C24.9833 10.0935 23.2187 9.36453 21.9162 8.0658C20.6137 6.76708 19.8796 5.00468 19.875 3.16533C19.8767 2.94937 19.8179 2.73725 19.7052 2.55301C19.5925 2.36876 19.4305 2.21976 19.2375 2.12288C19.0445 2.02599 18.8282 1.9851 18.6131 2.00484C18.3981 2.02458 18.1928 2.10415 18.0207 2.23455L9.05105 9.03474C8.98565 9.08466 8.93165 9.14796 8.89266 9.22042C8.85368 9.29288 8.83061 9.37282 8.825 9.45491C8.81939 9.537 8.83137 9.61934 8.86013 9.69643C8.8889 9.77352 8.93379 9.84358 8.9918 9.90193L16.4265 17.3366C16.6397 17.544 16.767 17.8241 16.783 18.1211C16.7991 18.4181 16.7028 18.7103 16.5132 18.9395C16.4093 19.0598 16.2818 19.1573 16.1385 19.2261C15.9952 19.2949 15.8393 19.3334 15.6805 19.3392C15.5217 19.3451 15.3634 19.3181 15.2154 19.26C15.0675 19.2019 14.9332 19.114 14.8207 19.0016L7.16059 11.3415C7.09533 11.2759 7.01531 11.227 6.92724 11.1988C6.83917 11.1706 6.74561 11.1639 6.65443 11.1793C6.56324 11.1948 6.47709 11.2319 6.40321 11.2875C6.32932 11.3431 6.26986 11.4156 6.2298 11.499C6.02328 11.9306 5.95574 12.4157 6.03651 12.8874C6.11727 13.359 6.34236 13.794 6.68074 14.1324L23.1125 30.567C23.22 30.6743 23.3475 30.7595 23.4879 30.8175C23.6282 30.8755 23.7787 30.9053 23.9305 30.9052H34.9062C35.5196 30.9052 36.1078 30.6616 36.5414 30.2279C36.9751 29.7942 37.2188 29.206 37.2188 28.5927V25.8379C37.2201 25.4083 37.1012 24.9868 36.8754 24.6213C36.6496 24.2558 36.3259 23.9608 35.9411 23.7697Z" fill="white"/>
</g>
<defs>
<clipPath id="clip0_159_190">
<rect width="37" height="37" fill="white"/>
</clipPath>
</defs>
</svg>
